<?xml version="1.0" encoding="UTF-8"?>
<svg width="64" height="64" viewBox="0 0 64 64" xmlns="http://www.w3.org/2000/svg">
  <!-- Background circle -->
  <circle cx="32" cy="32" r="30" fill="#2196F3"/>
  
  <!-- Calculator outline -->
  <rect x="18" y="16" width="28" height="32" rx="3" fill="#FFFFFF" stroke="#E0E0E0"/>
  
  <!-- Screen -->
  <rect x="21" y="19" width="22" height="8" rx="1" fill="#263238"/>
  
  <!-- Amount display -->
  <text x="32" y="25" text-anchor="middle" fill="#4CAF50" font-family="Arial, sans-serif" font-size="5" font-weight="bold">฿15K</text>
  
  <!-- Button grid -->
  <rect x="22" y="30" width="4" height="3" rx="0.5" fill="#F0F0F0"/>
  <rect x="28" y="30" width="4" height="3" rx="0.5" fill="#F0F0F0"/>
  <rect x="34" y="30" width="4" height="3" rx="0.5" fill="#F0F0F0"/>
  <rect x="40" y="30" width="4" height="3" rx="0.5" fill="#FF9800"/>
  
  <rect x="22" y="35" width="4" height="3" rx="0.5" fill="#F0F0F0"/>
  <rect x="28" y="35" width="4" height="3" rx="0.5" fill="#F0F0F0"/>
  <rect x="34" y="35" width="4" height="3" rx="0.5" fill="#F0F0F0"/>
  <rect x="40" y="35" width="4" height="3" rx="0.5" fill="#FF9800"/>
  
  <rect x="22" y="40" width="4" height="3" rx="0.5" fill="#F0F0F0"/>
  <rect x="28" y="40" width="4" height="3" rx="0.5" fill="#F0F0F0"/>
  <rect x="34" y="40" width="4" height="3" rx="0.5" fill="#F0F0F0"/>
  <rect x="40" y="40" width="4" height="6" rx="0.5" fill="#4CAF50"/>
  
  <!-- Money symbol -->
  <circle cx="10" cy="25" r="5" fill="#FFD700"/>
  <text x="10" y="27" text-anchor="middle" fill="#FF8F00" font-family="Arial, sans-serif" font-size="4" font-weight="bold">฿</text>
  
  <!-- Percentage -->
  <text x="52" y="27" fill="#4CAF50" font-family="Arial, sans-serif" font-size="6" font-weight="bold">%</text>
</svg>
